<mxfile host="app.diagrams.net" modified="2023-03-30T13:50:15.800Z" agent="5.0 (Macintosh)" etag="LAeFDw-vvOAIh-NOcx6n" version="21.0.6" type="github">
  <diagram id="kgpKYQtTHZ0yAKxKKP6v" name="Page-1">
    <mxGraphModel dx="1924" dy="2059" grid="1" gridSize="10" guides="1" tooltips="1" connect="1" arrows="1" fold="1" page="1" pageScale="1" pageWidth="850" pageHeight="1100" math="0" shadow="0">
      <root>
        <mxCell id="0" />
        <mxCell id="1" parent="0" />
        <mxCell id="3nuBFxr9cyL0pnOWT2aG-9" value="Unknown" style="verticalAlign=bottom;endArrow=block;shadow=0;strokeWidth=1;" parent="1" edge="1">
          <mxGeometry x="-0.0323" y="-20" relative="1" as="geometry">
            <mxPoint x="365" y="119.5" as="sourcePoint" />
            <mxPoint x="555" y="120" as="targetPoint" />
            <mxPoint as="offset" />
          </mxGeometry>
        </mxCell>
        <mxCell id="D1hPwI1u1eyKQ4dJg58t-1" value="&lt;font style=&quot;font-size: 16px;&quot;&gt;Transcriptomics Data&lt;/font&gt;" style="rounded=0;whiteSpace=wrap;html=1;fillColor=#e1d5e7;strokeColor=#9673a6;" parent="1" vertex="1">
          <mxGeometry x="40" y="20" width="240" height="80" as="geometry" />
        </mxCell>
        <mxCell id="D1hPwI1u1eyKQ4dJg58t-2" value="&lt;font style=&quot;font-size: 16px;&quot;&gt;Chemical Compound Information&lt;/font&gt;" style="rounded=0;whiteSpace=wrap;html=1;fillColor=#fff2cc;strokeColor=#d6b656;" parent="1" vertex="1">
          <mxGeometry x="30" y="270" width="250" height="80" as="geometry" />
        </mxCell>
        <mxCell id="D1hPwI1u1eyKQ4dJg58t-5" value="&lt;font style=&quot;font-size: 16px;&quot;&gt;Cell Painting Data&lt;/font&gt;" style="rounded=0;whiteSpace=wrap;html=1;fillColor=#ffe6cc;strokeColor=#d79b00;" parent="1" vertex="1">
          <mxGeometry x="30" y="520" width="250" height="80" as="geometry" />
        </mxCell>
        <mxCell id="D1hPwI1u1eyKQ4dJg58t-7" value="&lt;b&gt;Source:&lt;/b&gt; clue.io (CMAP)" style="rounded=0;whiteSpace=wrap;html=1;fillColor=#d5e8d4;gradientColor=#97d077;strokeColor=#82b366;" parent="1" vertex="1">
          <mxGeometry x="60" y="100" width="190" height="40" as="geometry" />
        </mxCell>
        <mxCell id="D1hPwI1u1eyKQ4dJg58t-8" value="&lt;b&gt;Source: &lt;/b&gt;clue.io/repurposing. Manually curated database with known MoA" style="rounded=0;whiteSpace=wrap;html=1;fillColor=#d5e8d4;gradientColor=#97d077;strokeColor=#82b366;" parent="1" vertex="1">
          <mxGeometry x="40" y="350" width="220" height="40" as="geometry" />
        </mxCell>
        <mxCell id="D1hPwI1u1eyKQ4dJg58t-9" value="&lt;b&gt;Source: &lt;/b&gt;Pharmbio " style="rounded=0;whiteSpace=wrap;html=1;fillColor=#d5e8d4;gradientColor=#97d077;strokeColor=#82b366;" parent="1" vertex="1">
          <mxGeometry x="40" y="600" width="230" height="40" as="geometry" />
        </mxCell>
        <mxCell id="D1hPwI1u1eyKQ4dJg58t-12" value="Tian: EfficientNet " style="verticalAlign=bottom;endArrow=block;shadow=0;strokeWidth=1;fontSize=12;" parent="1" edge="1">
          <mxGeometry x="0.0009" y="-30" relative="1" as="geometry">
            <mxPoint x="370" y="590" as="sourcePoint" />
            <mxPoint x="550" y="590.5" as="targetPoint" />
            <mxPoint as="offset" />
          </mxGeometry>
        </mxCell>
        <mxCell id="D1hPwI1u1eyKQ4dJg58t-13" value="Tian: Multi-Layer Perceptron&#xa;" style="verticalAlign=bottom;endArrow=block;shadow=0;strokeWidth=1;" parent="1" edge="1">
          <mxGeometry x="0.0009" y="-33" relative="1" as="geometry">
            <mxPoint x="365" y="367" as="sourcePoint" />
            <mxPoint x="555" y="367.5" as="targetPoint" />
            <mxPoint as="offset" />
            <Array as="points" />
          </mxGeometry>
        </mxCell>
        <mxCell id="D1hPwI1u1eyKQ4dJg58t-14" value="&lt;font style=&quot;font-size: 16px;&quot;&gt;Input&lt;/font&gt;" style="rounded=0;whiteSpace=wrap;html=1;fontStyle=1;fillColor=#bac8d3;strokeColor=#23445d;" parent="1" vertex="1">
          <mxGeometry x="30" y="-110" width="250" height="60" as="geometry" />
        </mxCell>
        <mxCell id="D1hPwI1u1eyKQ4dJg58t-15" value="&lt;b&gt;&lt;font style=&quot;font-size: 16px;&quot;&gt;Machine Learning Framework&lt;/font&gt;&lt;/b&gt;" style="rounded=0;whiteSpace=wrap;html=1;fillColor=#fad9d5;strokeColor=#ae4132;" parent="1" vertex="1">
          <mxGeometry x="350" y="-110" width="250" height="60" as="geometry" />
        </mxCell>
        <mxCell id="D1hPwI1u1eyKQ4dJg58t-16" value="&lt;b&gt;&lt;font style=&quot;font-size: 16px;&quot;&gt;Prediction&lt;/font&gt;&lt;/b&gt;" style="rounded=0;whiteSpace=wrap;html=1;fillColor=#fad7ac;strokeColor=#b46504;" parent="1" vertex="1">
          <mxGeometry x="895" y="-110" width="270" height="60" as="geometry" />
        </mxCell>
        <mxCell id="D1hPwI1u1eyKQ4dJg58t-17" value="&lt;b&gt;Type:&lt;/b&gt; Primarily expression data coming from L1000 hybridization-based technique. RNA-seq as well." style="rounded=0;whiteSpace=wrap;html=1;fillColor=#e6d0de;gradientColor=#d5739d;strokeColor=#996185;" parent="1" vertex="1">
          <mxGeometry x="60" y="140" width="190" height="60" as="geometry" />
        </mxCell>
        <mxCell id="D1hPwI1u1eyKQ4dJg58t-22" value="&lt;b&gt;Type:&lt;/b&gt; .tif pictures (2160 x 2160) in 5-channels" style="rounded=0;whiteSpace=wrap;html=1;fillColor=#e6d0de;gradientColor=#d5739d;strokeColor=#996185;" parent="1" vertex="1">
          <mxGeometry x="40" y="640" width="225" height="40" as="geometry" />
        </mxCell>
        <mxCell id="D1hPwI1u1eyKQ4dJg58t-24" value="&lt;b&gt;Type:&lt;/b&gt; Smiles strings" style="rounded=0;whiteSpace=wrap;html=1;fillColor=#e6d0de;gradientColor=#d5739d;strokeColor=#996185;" parent="1" vertex="1">
          <mxGeometry x="40" y="390" width="220" height="40" as="geometry" />
        </mxCell>
        <mxCell id="D1hPwI1u1eyKQ4dJg58t-26" value="&lt;div&gt;Preprocessing&lt;/div&gt;&lt;div&gt;&lt;br&gt;&lt;/div&gt;" style="rounded=0;whiteSpace=wrap;html=1;rotation=-90;fillColor=#f5f5f5;fontColor=#333333;strokeColor=#666666;" parent="1" vertex="1">
          <mxGeometry x="237.5" y="337.5" width="165" height="60" as="geometry" />
        </mxCell>
        <mxCell id="D1hPwI1u1eyKQ4dJg58t-27" value="&lt;div&gt;Preprocessing&lt;/div&gt;&lt;div&gt;&lt;br&gt;&lt;/div&gt;" style="rounded=0;whiteSpace=wrap;html=1;rotation=-90;fillColor=#f5f5f5;fontColor=#333333;strokeColor=#666666;" parent="1" vertex="1">
          <mxGeometry x="237.5" y="90" width="165" height="60" as="geometry" />
        </mxCell>
        <mxCell id="D1hPwI1u1eyKQ4dJg58t-28" value="&lt;div&gt;Preprocessing&lt;/div&gt;&lt;div&gt;&lt;br&gt;&lt;/div&gt;" style="rounded=0;whiteSpace=wrap;html=1;rotation=-90;fillColor=#f5f5f5;fontColor=#333333;strokeColor=#666666;" parent="1" vertex="1">
          <mxGeometry x="237.5" y="590" width="165" height="60" as="geometry" />
        </mxCell>
        <mxCell id="D1hPwI1u1eyKQ4dJg58t-30" value="" style="endArrow=classic;html=1;rounded=0;entryX=0.5;entryY=0;entryDx=0;entryDy=0;" parent="1" target="D1hPwI1u1eyKQ4dJg58t-31" edge="1">
          <mxGeometry width="50" height="50" relative="1" as="geometry">
            <mxPoint x="560" y="120" as="sourcePoint" />
            <mxPoint x="660" y="300" as="targetPoint" />
          </mxGeometry>
        </mxCell>
        <mxCell id="D1hPwI1u1eyKQ4dJg58t-31" value="Joint Model" style="whiteSpace=wrap;html=1;aspect=fixed;fillColor=#ffcccc;strokeColor=#36393d;" parent="1" vertex="1">
          <mxGeometry x="620" y="330" width="80" height="80" as="geometry" />
        </mxCell>
        <mxCell id="D1hPwI1u1eyKQ4dJg58t-32" value="" style="endArrow=classic;html=1;rounded=0;entryX=0.5;entryY=1;entryDx=0;entryDy=0;" parent="1" target="D1hPwI1u1eyKQ4dJg58t-31" edge="1">
          <mxGeometry width="50" height="50" relative="1" as="geometry">
            <mxPoint x="560" y="590" as="sourcePoint" />
            <mxPoint x="690" y="410" as="targetPoint" />
          </mxGeometry>
        </mxCell>
        <mxCell id="D1hPwI1u1eyKQ4dJg58t-33" value="" style="endArrow=classic;html=1;rounded=0;entryX=0;entryY=0.5;entryDx=0;entryDy=0;" parent="1" target="D1hPwI1u1eyKQ4dJg58t-31" edge="1">
          <mxGeometry width="50" height="50" relative="1" as="geometry">
            <mxPoint x="560" y="370" as="sourcePoint" />
            <mxPoint x="690" y="190" as="targetPoint" />
          </mxGeometry>
        </mxCell>
        <mxCell id="D1hPwI1u1eyKQ4dJg58t-34" value="&lt;b&gt;&lt;font style=&quot;font-size: 16px;&quot;&gt;Joint Model Optimization&lt;/font&gt;&lt;/b&gt;" style="rounded=0;whiteSpace=wrap;html=1;fillColor=#b0e3e6;strokeColor=#0e8088;" parent="1" vertex="1">
          <mxGeometry x="610" y="-110" width="280" height="60" as="geometry" />
        </mxCell>
        <mxCell id="D1hPwI1u1eyKQ4dJg58t-36" value="&lt;div&gt;Unknown Compound 1&lt;/div&gt;&lt;div&gt;Unknown Compound 2 Unknown Compound 3&lt;br&gt;&lt;/div&gt;" style="rounded=0;whiteSpace=wrap;html=1;" parent="1" vertex="1">
          <mxGeometry x="960" y="180" width="140" height="80" as="geometry" />
        </mxCell>
        <mxCell id="D1hPwI1u1eyKQ4dJg58t-46" value="" style="html=1;shadow=0;dashed=0;align=center;verticalAlign=middle;shape=mxgraph.arrows2.bendArrow;dy=15;dx=38;notch=0;arrowHead=48;rounded=1;fontSize=12;rotation=90;fillColor=#f5f5f5;strokeColor=#666666;gradientColor=#b3b3b3;" parent="1" vertex="1">
          <mxGeometry x="930" y="380" width="130" height="130" as="geometry" />
        </mxCell>
        <mxCell id="D1hPwI1u1eyKQ4dJg58t-48" value="" style="html=1;shadow=0;dashed=0;align=center;verticalAlign=middle;shape=mxgraph.arrows2.bendArrow;dy=15;dx=38;notch=0;arrowHead=48;rounded=1;fontSize=12;rotation=-180;fillColor=#f5f5f5;strokeColor=#666666;gradientColor=#b3b3b3;" parent="1" vertex="1">
          <mxGeometry x="930" y="260" width="120" height="120" as="geometry" />
        </mxCell>
        <mxCell id="D1hPwI1u1eyKQ4dJg58t-49" value="&lt;div&gt;MoA 1&lt;/div&gt;&lt;div&gt;MoA 2&lt;/div&gt;&lt;div&gt;MoA 3&lt;br&gt;&lt;/div&gt;" style="rounded=0;whiteSpace=wrap;html=1;" parent="1" vertex="1">
          <mxGeometry x="990" y="510" width="100" height="70" as="geometry" />
        </mxCell>
        <mxCell id="D1hPwI1u1eyKQ4dJg58t-50" value="&lt;div&gt;&lt;b&gt;Given&lt;/b&gt;&lt;/div&gt;&lt;div&gt;1. Compound representation&lt;/div&gt;&lt;div&gt;2. Gene expression&amp;nbsp; of compound induced perturbation&lt;/div&gt;&lt;div&gt;3. image-based profile of compound induced perturbation&lt;br&gt;&lt;/div&gt;" style="text;html=1;align=center;verticalAlign=middle;resizable=0;points=[];autosize=1;strokeColor=none;fillColor=none;fontSize=12;" parent="1" vertex="1">
          <mxGeometry x="865" y="110" width="330" height="70" as="geometry" />
        </mxCell>
        <mxCell id="D1hPwI1u1eyKQ4dJg58t-51" value="&lt;div&gt;&lt;b&gt;Predictions:&lt;/b&gt;&lt;/div&gt;&lt;div&gt;Mechanism of Action for Compound&lt;/div&gt;&lt;div&gt;&lt;br&gt;&lt;/div&gt;" style="text;html=1;align=center;verticalAlign=middle;resizable=0;points=[];autosize=1;strokeColor=none;fillColor=none;fontSize=12;" parent="1" vertex="1">
          <mxGeometry x="960" y="580" width="210" height="60" as="geometry" />
        </mxCell>
        <mxCell id="mocRb3aVS4eG0VOFSvYx-1" value="&lt;font style=&quot;font-size: 16px;&quot;&gt;Brightfield Data&lt;/font&gt;" style="rounded=0;whiteSpace=wrap;html=1;fillColor=#bac8d3;strokeColor=#23445d;" parent="1" vertex="1">
          <mxGeometry x="31" y="744" width="250" height="80" as="geometry" />
        </mxCell>
        <mxCell id="mocRb3aVS4eG0VOFSvYx-2" value="&lt;b&gt;Source: &lt;/b&gt;Pharmbio " style="rounded=0;whiteSpace=wrap;html=1;fillColor=#d5e8d4;gradientColor=#97d077;strokeColor=#82b366;" parent="1" vertex="1">
          <mxGeometry x="41" y="824" width="230" height="40" as="geometry" />
        </mxCell>
        <mxCell id="mocRb3aVS4eG0VOFSvYx-3" value="Gupta et.al:  ResNet-50" style="verticalAlign=bottom;endArrow=block;shadow=0;strokeWidth=1;fontSize=12;" parent="1" edge="1">
          <mxGeometry x="-0.1214" y="-26" relative="1" as="geometry">
            <mxPoint x="371" y="814" as="sourcePoint" />
            <mxPoint x="551" y="814.5" as="targetPoint" />
            <mxPoint as="offset" />
          </mxGeometry>
        </mxCell>
        <mxCell id="mocRb3aVS4eG0VOFSvYx-4" value="&lt;div&gt;&lt;b&gt;Type:&lt;/b&gt; .tif pictures (2160 x 2160) in 5-channels&lt;/div&gt;" style="rounded=0;whiteSpace=wrap;html=1;fillColor=#e6d0de;gradientColor=#d5739d;strokeColor=#996185;" parent="1" vertex="1">
          <mxGeometry x="41" y="864" width="225" height="40" as="geometry" />
        </mxCell>
        <mxCell id="mocRb3aVS4eG0VOFSvYx-5" value="&lt;div&gt;Preprocessing&lt;/div&gt;&lt;div&gt;&lt;br&gt;&lt;/div&gt;" style="rounded=0;whiteSpace=wrap;html=1;rotation=-90;fillColor=#f5f5f5;fontColor=#333333;strokeColor=#666666;" parent="1" vertex="1">
          <mxGeometry x="237.5" y="800" width="165" height="60" as="geometry" />
        </mxCell>
        <mxCell id="mocRb3aVS4eG0VOFSvYx-6" value="" style="endArrow=classic;html=1;rounded=0;" parent="1" edge="1">
          <mxGeometry width="50" height="50" relative="1" as="geometry">
            <mxPoint x="550" y="810" as="sourcePoint" />
            <mxPoint x="660" y="410" as="targetPoint" />
          </mxGeometry>
        </mxCell>
        <mxCell id="TUwUTNBatRXr4J6QnmyJ-1" value="" style="endArrow=classic;html=1;rounded=0;entryX=0;entryY=0.5;entryDx=0;entryDy=0;" parent="1" edge="1">
          <mxGeometry width="50" height="50" relative="1" as="geometry">
            <mxPoint x="710" y="369.5" as="sourcePoint" />
            <mxPoint x="770" y="369.5" as="targetPoint" />
          </mxGeometry>
        </mxCell>
        <mxCell id="TUwUTNBatRXr4J6QnmyJ-4" value="Feature Extraction" style="edgeLabel;html=1;align=center;verticalAlign=middle;resizable=0;points=[];" parent="TUwUTNBatRXr4J6QnmyJ-1" vertex="1" connectable="0">
          <mxGeometry x="-0.3333" y="-1" relative="1" as="geometry">
            <mxPoint x="20" y="-20" as="offset" />
          </mxGeometry>
        </mxCell>
        <mxCell id="TUwUTNBatRXr4J6QnmyJ-2" value="Fine Tuning" style="endArrow=classic;html=1;rounded=0;entryX=0;entryY=0.5;entryDx=0;entryDy=0;" parent="1" edge="1">
          <mxGeometry y="-20" width="50" height="50" relative="1" as="geometry">
            <mxPoint x="780" y="369.5" as="sourcePoint" />
            <mxPoint x="840" y="369.5" as="targetPoint" />
            <mxPoint y="1" as="offset" />
          </mxGeometry>
        </mxCell>
        <mxCell id="TUwUTNBatRXr4J6QnmyJ-3" value="Final Joint Model" style="whiteSpace=wrap;html=1;aspect=fixed;fillColor=#dae8fc;strokeColor=#6c8ebf;" parent="1" vertex="1">
          <mxGeometry x="850" y="330" width="80" height="80" as="geometry" />
        </mxCell>
        <mxCell id="cC5Lswz_oZdZxd0lIUzK-1" value="Unknown" style="verticalAlign=bottom;endArrow=block;shadow=0;strokeWidth=1;" edge="1" parent="1">
          <mxGeometry x="-0.0323" y="-20" relative="1" as="geometry">
            <mxPoint x="1528" y="129.5" as="sourcePoint" />
            <mxPoint x="1718" y="130" as="targetPoint" />
            <mxPoint as="offset" />
          </mxGeometry>
        </mxCell>
        <mxCell id="cC5Lswz_oZdZxd0lIUzK-2" value="&lt;font style=&quot;font-size: 16px;&quot;&gt;Transcriptomics Data&lt;/font&gt;" style="rounded=0;whiteSpace=wrap;html=1;fillColor=#e1d5e7;strokeColor=#9673a6;" vertex="1" parent="1">
          <mxGeometry x="1203" y="30" width="242" height="80" as="geometry" />
        </mxCell>
        <mxCell id="cC5Lswz_oZdZxd0lIUzK-3" value="&lt;font style=&quot;font-size: 16px;&quot;&gt;Chemical Compound Information&lt;/font&gt;" style="rounded=0;whiteSpace=wrap;html=1;fillColor=#fff2cc;strokeColor=#d6b656;" vertex="1" parent="1">
          <mxGeometry x="1193" y="280" width="252" height="80" as="geometry" />
        </mxCell>
        <mxCell id="cC5Lswz_oZdZxd0lIUzK-4" value="&lt;font style=&quot;font-size: 16px;&quot;&gt;Cell Painting Data&lt;/font&gt;" style="rounded=0;whiteSpace=wrap;html=1;fillColor=#ffe6cc;strokeColor=#d79b00;" vertex="1" parent="1">
          <mxGeometry x="1193" y="530" width="252" height="80" as="geometry" />
        </mxCell>
        <mxCell id="cC5Lswz_oZdZxd0lIUzK-5" value="&lt;b&gt;Source:&lt;/b&gt; clue.io (CMAP)" style="rounded=0;whiteSpace=wrap;html=1;fillColor=#d5e8d4;gradientColor=#97d077;strokeColor=#82b366;" vertex="1" parent="1">
          <mxGeometry x="1223" y="110" width="192" height="40" as="geometry" />
        </mxCell>
        <mxCell id="cC5Lswz_oZdZxd0lIUzK-6" value="&lt;b&gt;Source: &lt;/b&gt;clue.io/repurposing. Manually curated database with known MoA" style="rounded=0;whiteSpace=wrap;html=1;fillColor=#d5e8d4;gradientColor=#97d077;strokeColor=#82b366;" vertex="1" parent="1">
          <mxGeometry x="1203" y="360" width="222" height="40" as="geometry" />
        </mxCell>
        <mxCell id="cC5Lswz_oZdZxd0lIUzK-7" value="&lt;b&gt;Source: &lt;/b&gt;Pharmbio " style="rounded=0;whiteSpace=wrap;html=1;fillColor=#d5e8d4;gradientColor=#97d077;strokeColor=#82b366;" vertex="1" parent="1">
          <mxGeometry x="1203" y="610" width="232" height="40" as="geometry" />
        </mxCell>
        <mxCell id="cC5Lswz_oZdZxd0lIUzK-8" value="Tian: EfficientNet " style="verticalAlign=bottom;endArrow=block;shadow=0;strokeWidth=1;fontSize=12;" edge="1" parent="1">
          <mxGeometry x="0.0009" y="-30" relative="1" as="geometry">
            <mxPoint x="1533" y="600" as="sourcePoint" />
            <mxPoint x="1713" y="600.5" as="targetPoint" />
            <mxPoint as="offset" />
          </mxGeometry>
        </mxCell>
        <mxCell id="cC5Lswz_oZdZxd0lIUzK-9" value="Tian: Multi-Layer Perceptron&#xa;" style="verticalAlign=bottom;endArrow=block;shadow=0;strokeWidth=1;" edge="1" parent="1">
          <mxGeometry x="0.0009" y="-33" relative="1" as="geometry">
            <mxPoint x="1528" y="377" as="sourcePoint" />
            <mxPoint x="1718" y="377.5" as="targetPoint" />
            <mxPoint as="offset" />
            <Array as="points" />
          </mxGeometry>
        </mxCell>
        <mxCell id="cC5Lswz_oZdZxd0lIUzK-10" value="&lt;font style=&quot;font-size: 16px;&quot;&gt;Input&lt;/font&gt;" style="rounded=0;whiteSpace=wrap;html=1;fontStyle=1;fillColor=#bac8d3;strokeColor=#23445d;" vertex="1" parent="1">
          <mxGeometry x="1193" y="-100" width="252" height="60" as="geometry" />
        </mxCell>
        <mxCell id="cC5Lswz_oZdZxd0lIUzK-11" value="&lt;b&gt;&lt;font style=&quot;font-size: 16px;&quot;&gt;Machine Learning Framework&lt;/font&gt;&lt;/b&gt;" style="rounded=0;whiteSpace=wrap;html=1;fillColor=#fad9d5;strokeColor=#ae4132;" vertex="1" parent="1">
          <mxGeometry x="1513" y="-100" width="252" height="60" as="geometry" />
        </mxCell>
        <mxCell id="cC5Lswz_oZdZxd0lIUzK-12" value="&lt;b&gt;&lt;font style=&quot;font-size: 16px;&quot;&gt;Prediction&lt;/font&gt;&lt;/b&gt;" style="rounded=0;whiteSpace=wrap;html=1;fillColor=#fad7ac;strokeColor=#b46504;" vertex="1" parent="1">
          <mxGeometry x="2058" y="-100" width="272" height="60" as="geometry" />
        </mxCell>
        <mxCell id="cC5Lswz_oZdZxd0lIUzK-13" value="&lt;b&gt;Type:&lt;/b&gt; Primarily expression data coming from L1000 hybridization-based technique. RNA-seq as well." style="rounded=0;whiteSpace=wrap;html=1;fillColor=#e6d0de;gradientColor=#d5739d;strokeColor=#996185;" vertex="1" parent="1">
          <mxGeometry x="1223" y="150" width="192" height="60" as="geometry" />
        </mxCell>
        <mxCell id="cC5Lswz_oZdZxd0lIUzK-14" value="&lt;b&gt;Type:&lt;/b&gt; .tif pictures (2160 x 2160) in 5-channels" style="rounded=0;whiteSpace=wrap;html=1;fillColor=#e6d0de;gradientColor=#d5739d;strokeColor=#996185;" vertex="1" parent="1">
          <mxGeometry x="1203" y="650" width="227" height="40" as="geometry" />
        </mxCell>
        <mxCell id="cC5Lswz_oZdZxd0lIUzK-15" value="&lt;b&gt;Type:&lt;/b&gt; Smiles strings" style="rounded=0;whiteSpace=wrap;html=1;fillColor=#e6d0de;gradientColor=#d5739d;strokeColor=#996185;" vertex="1" parent="1">
          <mxGeometry x="1203" y="400" width="222" height="40" as="geometry" />
        </mxCell>
        <mxCell id="cC5Lswz_oZdZxd0lIUzK-16" value="&lt;div&gt;Preprocessing&lt;/div&gt;&lt;div&gt;&lt;br&gt;&lt;/div&gt;" style="rounded=0;whiteSpace=wrap;html=1;rotation=-90;fillColor=#f5f5f5;fontColor=#333333;strokeColor=#666666;" vertex="1" parent="1">
          <mxGeometry x="1400.5" y="347.5" width="167" height="60" as="geometry" />
        </mxCell>
        <mxCell id="cC5Lswz_oZdZxd0lIUzK-17" value="&lt;div&gt;Preprocessing&lt;/div&gt;&lt;div&gt;&lt;br&gt;&lt;/div&gt;" style="rounded=0;whiteSpace=wrap;html=1;rotation=-90;fillColor=#f5f5f5;fontColor=#333333;strokeColor=#666666;" vertex="1" parent="1">
          <mxGeometry x="1400.5" y="100" width="167" height="60" as="geometry" />
        </mxCell>
        <mxCell id="cC5Lswz_oZdZxd0lIUzK-18" value="&lt;div&gt;Preprocessing&lt;/div&gt;&lt;div&gt;&lt;br&gt;&lt;/div&gt;" style="rounded=0;whiteSpace=wrap;html=1;rotation=-90;fillColor=#f5f5f5;fontColor=#333333;strokeColor=#666666;" vertex="1" parent="1">
          <mxGeometry x="1400.5" y="600" width="167" height="60" as="geometry" />
        </mxCell>
        <mxCell id="cC5Lswz_oZdZxd0lIUzK-19" value="" style="endArrow=classic;html=1;rounded=0;entryX=0.5;entryY=0;entryDx=0;entryDy=0;" edge="1" parent="1" target="cC5Lswz_oZdZxd0lIUzK-20">
          <mxGeometry width="50" height="50" relative="1" as="geometry">
            <mxPoint x="1723" y="130" as="sourcePoint" />
            <mxPoint x="1823" y="310" as="targetPoint" />
          </mxGeometry>
        </mxCell>
        <mxCell id="cC5Lswz_oZdZxd0lIUzK-20" value="Joint Model" style="whiteSpace=wrap;html=1;aspect=fixed;fillColor=#ffcccc;strokeColor=#36393d;" vertex="1" parent="1">
          <mxGeometry x="1783" y="340" width="82" height="80" as="geometry" />
        </mxCell>
        <mxCell id="cC5Lswz_oZdZxd0lIUzK-21" value="" style="endArrow=classic;html=1;rounded=0;entryX=0.5;entryY=1;entryDx=0;entryDy=0;" edge="1" parent="1" target="cC5Lswz_oZdZxd0lIUzK-20">
          <mxGeometry width="50" height="50" relative="1" as="geometry">
            <mxPoint x="1723" y="600" as="sourcePoint" />
            <mxPoint x="1853" y="420" as="targetPoint" />
          </mxGeometry>
        </mxCell>
        <mxCell id="cC5Lswz_oZdZxd0lIUzK-22" value="" style="endArrow=classic;html=1;rounded=0;entryX=0;entryY=0.5;entryDx=0;entryDy=0;" edge="1" parent="1" target="cC5Lswz_oZdZxd0lIUzK-20">
          <mxGeometry width="50" height="50" relative="1" as="geometry">
            <mxPoint x="1723" y="380" as="sourcePoint" />
            <mxPoint x="1853" y="200" as="targetPoint" />
          </mxGeometry>
        </mxCell>
        <mxCell id="cC5Lswz_oZdZxd0lIUzK-23" value="&lt;b&gt;&lt;font style=&quot;font-size: 16px;&quot;&gt;Joint Model Optimization&lt;/font&gt;&lt;/b&gt;" style="rounded=0;whiteSpace=wrap;html=1;fillColor=#b0e3e6;strokeColor=#0e8088;" vertex="1" parent="1">
          <mxGeometry x="1773" y="-100" width="282" height="60" as="geometry" />
        </mxCell>
        <mxCell id="cC5Lswz_oZdZxd0lIUzK-24" value="&lt;div&gt;Unknown Compound 1&lt;/div&gt;&lt;div&gt;Unknown Compound 2 Unknown Compound 3&lt;br&gt;&lt;/div&gt;" style="rounded=0;whiteSpace=wrap;html=1;" vertex="1" parent="1">
          <mxGeometry x="2123" y="190" width="142" height="80" as="geometry" />
        </mxCell>
        <mxCell id="cC5Lswz_oZdZxd0lIUzK-25" value="" style="html=1;shadow=0;dashed=0;align=center;verticalAlign=middle;shape=mxgraph.arrows2.bendArrow;dy=15;dx=38;notch=0;arrowHead=48;rounded=1;fontSize=12;rotation=90;fillColor=#f5f5f5;strokeColor=#666666;gradientColor=#b3b3b3;" vertex="1" parent="1">
          <mxGeometry x="2093" y="390" width="132" height="130" as="geometry" />
        </mxCell>
        <mxCell id="cC5Lswz_oZdZxd0lIUzK-26" value="" style="html=1;shadow=0;dashed=0;align=center;verticalAlign=middle;shape=mxgraph.arrows2.bendArrow;dy=15;dx=38;notch=0;arrowHead=48;rounded=1;fontSize=12;rotation=-180;fillColor=#f5f5f5;strokeColor=#666666;gradientColor=#b3b3b3;" vertex="1" parent="1">
          <mxGeometry x="2093" y="270" width="122" height="120" as="geometry" />
        </mxCell>
        <mxCell id="cC5Lswz_oZdZxd0lIUzK-27" value="&lt;div&gt;MoA 1&lt;/div&gt;&lt;div&gt;MoA 2&lt;/div&gt;&lt;div&gt;MoA 3&lt;br&gt;&lt;/div&gt;" style="rounded=0;whiteSpace=wrap;html=1;" vertex="1" parent="1">
          <mxGeometry x="2153" y="520" width="102" height="70" as="geometry" />
        </mxCell>
        <mxCell id="cC5Lswz_oZdZxd0lIUzK-28" value="&lt;div&gt;&lt;b&gt;Given&lt;/b&gt;&lt;/div&gt;&lt;div&gt;1. Compound representation&lt;/div&gt;&lt;div&gt;2. Gene expression&amp;nbsp; of compound induced perturbation&lt;/div&gt;&lt;div&gt;3. image-based profile of compound induced perturbation&lt;br&gt;&lt;/div&gt;" style="text;html=1;align=center;verticalAlign=middle;resizable=0;points=[];autosize=1;strokeColor=none;fillColor=none;fontSize=12;" vertex="1" parent="1">
          <mxGeometry x="2028" y="120" width="330" height="70" as="geometry" />
        </mxCell>
        <mxCell id="cC5Lswz_oZdZxd0lIUzK-29" value="&lt;div&gt;&lt;b&gt;Predictions:&lt;/b&gt;&lt;/div&gt;&lt;div&gt;Mechanism of Action for Compound&lt;/div&gt;&lt;div&gt;&lt;br&gt;&lt;/div&gt;" style="text;html=1;align=center;verticalAlign=middle;resizable=0;points=[];autosize=1;strokeColor=none;fillColor=none;fontSize=12;" vertex="1" parent="1">
          <mxGeometry x="2123" y="590" width="210" height="60" as="geometry" />
        </mxCell>
        <mxCell id="cC5Lswz_oZdZxd0lIUzK-36" value="" style="endArrow=classic;html=1;rounded=0;entryX=0;entryY=0.5;entryDx=0;entryDy=0;" edge="1" parent="1">
          <mxGeometry width="50" height="50" relative="1" as="geometry">
            <mxPoint x="1873" y="379.5" as="sourcePoint" />
            <mxPoint x="1933" y="379.5" as="targetPoint" />
          </mxGeometry>
        </mxCell>
        <mxCell id="cC5Lswz_oZdZxd0lIUzK-37" value="Feature Extraction" style="edgeLabel;html=1;align=center;verticalAlign=middle;resizable=0;points=[];" vertex="1" connectable="0" parent="cC5Lswz_oZdZxd0lIUzK-36">
          <mxGeometry x="-0.3333" y="-1" relative="1" as="geometry">
            <mxPoint x="20" y="-20" as="offset" />
          </mxGeometry>
        </mxCell>
        <mxCell id="cC5Lswz_oZdZxd0lIUzK-38" value="Fine Tuning" style="endArrow=classic;html=1;rounded=0;entryX=0;entryY=0.5;entryDx=0;entryDy=0;" edge="1" parent="1">
          <mxGeometry y="-20" width="50" height="50" relative="1" as="geometry">
            <mxPoint x="1943" y="379.5" as="sourcePoint" />
            <mxPoint x="2003" y="379.5" as="targetPoint" />
            <mxPoint y="1" as="offset" />
          </mxGeometry>
        </mxCell>
        <mxCell id="cC5Lswz_oZdZxd0lIUzK-39" value="Final Joint Model" style="whiteSpace=wrap;html=1;aspect=fixed;fillColor=#dae8fc;strokeColor=#6c8ebf;" vertex="1" parent="1">
          <mxGeometry x="2013" y="340" width="82" height="80" as="geometry" />
        </mxCell>
        <mxCell id="cC5Lswz_oZdZxd0lIUzK-40" value="Under Investigation" style="verticalAlign=bottom;endArrow=block;shadow=0;strokeWidth=1;exitX=1;exitY=0.5;exitDx=0;exitDy=0;" edge="1" parent="1" source="cC5Lswz_oZdZxd0lIUzK-41">
          <mxGeometry x="-0.0323" y="-20" relative="1" as="geometry">
            <mxPoint x="1540" y="910" as="sourcePoint" />
            <mxPoint x="1820" y="1110" as="targetPoint" />
            <mxPoint as="offset" />
            <Array as="points">
              <mxPoint x="1630" y="910" />
            </Array>
          </mxGeometry>
        </mxCell>
        <mxCell id="cC5Lswz_oZdZxd0lIUzK-41" value="&lt;font style=&quot;font-size: 16px;&quot;&gt;Transcriptomics&lt;br&gt;&lt;/font&gt;" style="rounded=0;whiteSpace=wrap;html=1;fillColor=#e1d5e7;strokeColor=#9673a6;" vertex="1" parent="1">
          <mxGeometry x="1240" y="870" width="250" height="80" as="geometry" />
        </mxCell>
        <mxCell id="cC5Lswz_oZdZxd0lIUzK-42" value="&lt;font style=&quot;font-size: 16px;&quot;&gt;Chemical Compound&lt;br&gt;&lt;/font&gt;" style="rounded=0;whiteSpace=wrap;html=1;fillColor=#fff2cc;strokeColor=#d6b656;" vertex="1" parent="1">
          <mxGeometry x="1238" y="1000" width="252" height="80" as="geometry" />
        </mxCell>
        <mxCell id="cC5Lswz_oZdZxd0lIUzK-80" style="edgeStyle=orthogonalEdgeStyle;rounded=0;orthogonalLoop=1;jettySize=auto;html=1;entryX=0;entryY=0.5;entryDx=0;entryDy=0;" edge="1" parent="1" source="cC5Lswz_oZdZxd0lIUzK-43" target="cC5Lswz_oZdZxd0lIUzK-56">
          <mxGeometry relative="1" as="geometry">
            <mxPoint x="1680" y="1160" as="targetPoint" />
          </mxGeometry>
        </mxCell>
        <mxCell id="cC5Lswz_oZdZxd0lIUzK-95" value="EfficientNet" style="edgeLabel;html=1;align=center;verticalAlign=middle;resizable=0;points=[];" vertex="1" connectable="0" parent="cC5Lswz_oZdZxd0lIUzK-80">
          <mxGeometry x="0.0307" y="-1" relative="1" as="geometry">
            <mxPoint as="offset" />
          </mxGeometry>
        </mxCell>
        <mxCell id="cC5Lswz_oZdZxd0lIUzK-43" value="&lt;font style=&quot;font-size: 16px;&quot;&gt;Cell Painting&lt;br&gt;&lt;/font&gt;" style="rounded=0;whiteSpace=wrap;html=1;fillColor=#ffe6cc;strokeColor=#d79b00;" vertex="1" parent="1">
          <mxGeometry x="1240" y="1120" width="250" height="80" as="geometry" />
        </mxCell>
        <mxCell id="cC5Lswz_oZdZxd0lIUzK-48" value="Multi-Layer Perceptron&#xa;" style="verticalAlign=bottom;endArrow=block;shadow=0;strokeWidth=1;exitX=1;exitY=0.5;exitDx=0;exitDy=0;entryX=0.5;entryY=0;entryDx=0;entryDy=0;" edge="1" parent="1" source="cC5Lswz_oZdZxd0lIUzK-42" target="cC5Lswz_oZdZxd0lIUzK-56">
          <mxGeometry x="0.1123" y="-2" relative="1" as="geometry">
            <mxPoint x="1528" y="1157" as="sourcePoint" />
            <mxPoint x="1718" y="1157.5" as="targetPoint" />
            <mxPoint as="offset" />
            <Array as="points" />
          </mxGeometry>
        </mxCell>
        <mxCell id="cC5Lswz_oZdZxd0lIUzK-56" value="Joint Model" style="whiteSpace=wrap;html=1;aspect=fixed;fillColor=#ffcccc;strokeColor=#36393d;" vertex="1" parent="1">
          <mxGeometry x="1783" y="1120" width="82" height="80" as="geometry" />
        </mxCell>
        <mxCell id="cC5Lswz_oZdZxd0lIUzK-59" value="&lt;div&gt;Unknown Compound 1&lt;/div&gt;&lt;div&gt;Unknown Compound 2 Unknown Compound 3&lt;br&gt;&lt;/div&gt;" style="rounded=0;whiteSpace=wrap;html=1;" vertex="1" parent="1">
          <mxGeometry x="2123" y="970" width="142" height="80" as="geometry" />
        </mxCell>
        <mxCell id="cC5Lswz_oZdZxd0lIUzK-60" value="" style="html=1;shadow=0;dashed=0;align=center;verticalAlign=middle;shape=mxgraph.arrows2.bendArrow;dy=15;dx=38;notch=0;arrowHead=48;rounded=1;fontSize=12;rotation=90;fillColor=#f5f5f5;strokeColor=#666666;gradientColor=#b3b3b3;" vertex="1" parent="1">
          <mxGeometry x="2093" y="1170" width="132" height="130" as="geometry" />
        </mxCell>
        <mxCell id="cC5Lswz_oZdZxd0lIUzK-61" value="" style="html=1;shadow=0;dashed=0;align=center;verticalAlign=middle;shape=mxgraph.arrows2.bendArrow;dy=15;dx=38;notch=0;arrowHead=48;rounded=1;fontSize=12;rotation=-180;fillColor=#f5f5f5;strokeColor=#666666;gradientColor=#b3b3b3;" vertex="1" parent="1">
          <mxGeometry x="2093" y="1050" width="122" height="120" as="geometry" />
        </mxCell>
        <mxCell id="cC5Lswz_oZdZxd0lIUzK-62" value="&lt;div&gt;MoA 1&lt;/div&gt;&lt;div&gt;MoA 2&lt;/div&gt;&lt;div&gt;MoA 3&lt;br&gt;&lt;/div&gt;" style="rounded=0;whiteSpace=wrap;html=1;" vertex="1" parent="1">
          <mxGeometry x="2153" y="1300" width="102" height="70" as="geometry" />
        </mxCell>
        <mxCell id="cC5Lswz_oZdZxd0lIUzK-63" value="&lt;div&gt;&lt;b&gt;Predictions:&lt;/b&gt;&lt;/div&gt;&lt;div&gt;Mechanism of Action for Compound&lt;/div&gt;&lt;div&gt;&lt;br&gt;&lt;/div&gt;" style="text;html=1;align=center;verticalAlign=middle;resizable=0;points=[];autosize=1;strokeColor=none;fillColor=none;fontSize=12;" vertex="1" parent="1">
          <mxGeometry x="2123" y="1370" width="210" height="60" as="geometry" />
        </mxCell>
        <mxCell id="cC5Lswz_oZdZxd0lIUzK-64" value="" style="endArrow=classic;html=1;rounded=0;entryX=0;entryY=0.5;entryDx=0;entryDy=0;" edge="1" parent="1">
          <mxGeometry width="50" height="50" relative="1" as="geometry">
            <mxPoint x="1873" y="1159.5" as="sourcePoint" />
            <mxPoint x="1933" y="1159.5" as="targetPoint" />
          </mxGeometry>
        </mxCell>
        <mxCell id="cC5Lswz_oZdZxd0lIUzK-65" value="Feature Extraction" style="edgeLabel;html=1;align=center;verticalAlign=middle;resizable=0;points=[];" vertex="1" connectable="0" parent="cC5Lswz_oZdZxd0lIUzK-64">
          <mxGeometry x="-0.3333" y="-1" relative="1" as="geometry">
            <mxPoint x="20" y="-20" as="offset" />
          </mxGeometry>
        </mxCell>
        <mxCell id="cC5Lswz_oZdZxd0lIUzK-66" value="Fine Tuning" style="endArrow=classic;html=1;rounded=0;entryX=0;entryY=0.5;entryDx=0;entryDy=0;" edge="1" parent="1">
          <mxGeometry y="-20" width="50" height="50" relative="1" as="geometry">
            <mxPoint x="1943" y="1159.5" as="sourcePoint" />
            <mxPoint x="2003" y="1159.5" as="targetPoint" />
            <mxPoint y="1" as="offset" />
          </mxGeometry>
        </mxCell>
        <mxCell id="cC5Lswz_oZdZxd0lIUzK-67" value="Final Joint Model" style="whiteSpace=wrap;html=1;aspect=fixed;fillColor=#dae8fc;strokeColor=#6c8ebf;" vertex="1" parent="1">
          <mxGeometry x="2013" y="1120" width="82" height="80" as="geometry" />
        </mxCell>
        <mxCell id="cC5Lswz_oZdZxd0lIUzK-68" value="&lt;font style=&quot;font-size: 16px;&quot;&gt;Input&lt;/font&gt;" style="rounded=0;whiteSpace=wrap;html=1;fontStyle=1;fillColor=#bac8d3;strokeColor=#23445d;" vertex="1" parent="1">
          <mxGeometry x="1238" y="740" width="252" height="60" as="geometry" />
        </mxCell>
        <mxCell id="cC5Lswz_oZdZxd0lIUzK-69" value="&lt;b&gt;&lt;font style=&quot;font-size: 16px;&quot;&gt;Machine Learning Framework&lt;/font&gt;&lt;/b&gt;" style="rounded=0;whiteSpace=wrap;html=1;fillColor=#fad9d5;strokeColor=#ae4132;" vertex="1" parent="1">
          <mxGeometry x="1523" y="740" width="252" height="60" as="geometry" />
        </mxCell>
        <mxCell id="cC5Lswz_oZdZxd0lIUzK-70" value="&lt;b&gt;&lt;font style=&quot;font-size: 16px;&quot;&gt;Prediction&lt;/font&gt;&lt;/b&gt;" style="rounded=0;whiteSpace=wrap;html=1;fillColor=#fad7ac;strokeColor=#b46504;" vertex="1" parent="1">
          <mxGeometry x="2068" y="740" width="272" height="60" as="geometry" />
        </mxCell>
        <mxCell id="cC5Lswz_oZdZxd0lIUzK-71" value="&lt;b&gt;&lt;font style=&quot;font-size: 16px;&quot;&gt;Joint Model Optimization&lt;/font&gt;&lt;/b&gt;" style="rounded=0;whiteSpace=wrap;html=1;fillColor=#b0e3e6;strokeColor=#0e8088;" vertex="1" parent="1">
          <mxGeometry x="1783" y="740" width="282" height="60" as="geometry" />
        </mxCell>
        <mxCell id="cC5Lswz_oZdZxd0lIUzK-72" value="&lt;font style=&quot;font-size: 16px;&quot;&gt;Input&lt;/font&gt;" style="rounded=0;whiteSpace=wrap;html=1;fontStyle=1;fillColor=#bac8d3;strokeColor=#23445d;" vertex="1" parent="1">
          <mxGeometry x="1213" y="-80" width="252" height="60" as="geometry" />
        </mxCell>
        <mxCell id="cC5Lswz_oZdZxd0lIUzK-73" value="&lt;b&gt;&lt;font style=&quot;font-size: 16px;&quot;&gt;Machine Learning Framework&lt;/font&gt;&lt;/b&gt;" style="rounded=0;whiteSpace=wrap;html=1;fillColor=#fad9d5;strokeColor=#ae4132;" vertex="1" parent="1">
          <mxGeometry x="1533" y="-80" width="252" height="60" as="geometry" />
        </mxCell>
        <mxCell id="cC5Lswz_oZdZxd0lIUzK-74" value="&lt;b&gt;&lt;font style=&quot;font-size: 16px;&quot;&gt;Prediction&lt;/font&gt;&lt;/b&gt;" style="rounded=0;whiteSpace=wrap;html=1;fillColor=#fad7ac;strokeColor=#b46504;" vertex="1" parent="1">
          <mxGeometry x="2078" y="-80" width="272" height="60" as="geometry" />
        </mxCell>
        <mxCell id="cC5Lswz_oZdZxd0lIUzK-75" value="&lt;b&gt;&lt;font style=&quot;font-size: 16px;&quot;&gt;Joint Model Optimization&lt;/font&gt;&lt;/b&gt;" style="rounded=0;whiteSpace=wrap;html=1;fillColor=#b0e3e6;strokeColor=#0e8088;" vertex="1" parent="1">
          <mxGeometry x="1793" y="-80" width="282" height="60" as="geometry" />
        </mxCell>
        <mxCell id="cC5Lswz_oZdZxd0lIUzK-76" value="&lt;font style=&quot;font-size: 16px;&quot;&gt;Brightfield&lt;/font&gt;" style="rounded=0;whiteSpace=wrap;html=1;fillColor=#d5e8d4;strokeColor=#82b366;dashed=1;" vertex="1" parent="1">
          <mxGeometry x="1240" y="1230" width="252" height="80" as="geometry" />
        </mxCell>
        <mxCell id="cC5Lswz_oZdZxd0lIUzK-77" value="&lt;div&gt;&lt;font style=&quot;font-size: 16px;&quot;&gt;Binding Affinity (PTP)&lt;/font&gt;&lt;/div&gt;&lt;div style=&quot;&quot;&gt;&lt;font style=&quot;font-size: 12px;&quot;&gt;Johnathan &lt;br&gt;&lt;/font&gt;&lt;/div&gt;" style="rounded=0;whiteSpace=wrap;html=1;fillColor=#f8cecc;strokeColor=#b85450;dashed=1;" vertex="1" parent="1">
          <mxGeometry x="1240" y="1350" width="252" height="80" as="geometry" />
        </mxCell>
        <mxCell id="cC5Lswz_oZdZxd0lIUzK-87" value="" style="endArrow=classic;html=1;rounded=1;exitX=1;exitY=0.5;exitDx=0;exitDy=0;entryX=0.598;entryY=1.013;entryDx=0;entryDy=0;entryPerimeter=0;dashed=1;" edge="1" parent="1" source="cC5Lswz_oZdZxd0lIUzK-76" target="cC5Lswz_oZdZxd0lIUzK-56">
          <mxGeometry width="50" height="50" relative="1" as="geometry">
            <mxPoint x="1620" y="1190" as="sourcePoint" />
            <mxPoint x="1670" y="1140" as="targetPoint" />
            <Array as="points">
              <mxPoint x="1650" y="1270" />
            </Array>
          </mxGeometry>
        </mxCell>
        <mxCell id="cC5Lswz_oZdZxd0lIUzK-96" value="Under Investigation" style="edgeLabel;html=1;align=center;verticalAlign=middle;resizable=0;points=[];" vertex="1" connectable="0" parent="cC5Lswz_oZdZxd0lIUzK-87">
          <mxGeometry x="-0.3024" y="-1" relative="1" as="geometry">
            <mxPoint as="offset" />
          </mxGeometry>
        </mxCell>
        <mxCell id="cC5Lswz_oZdZxd0lIUzK-92" value="" style="endArrow=classic;html=1;rounded=1;exitX=1;exitY=0.5;exitDx=0;exitDy=0;dashed=1;" edge="1" parent="1" source="cC5Lswz_oZdZxd0lIUzK-77">
          <mxGeometry width="50" height="50" relative="1" as="geometry">
            <mxPoint x="1620" y="1190" as="sourcePoint" />
            <mxPoint x="1830" y="1200" as="targetPoint" />
            <Array as="points">
              <mxPoint x="1640" y="1390" />
            </Array>
          </mxGeometry>
        </mxCell>
        <mxCell id="cC5Lswz_oZdZxd0lIUzK-97" value="Under Investigation" style="edgeLabel;html=1;align=center;verticalAlign=middle;resizable=0;points=[];" vertex="1" connectable="0" parent="cC5Lswz_oZdZxd0lIUzK-92">
          <mxGeometry x="-0.6016" y="-2" relative="1" as="geometry">
            <mxPoint as="offset" />
          </mxGeometry>
        </mxCell>
        <mxCell id="cC5Lswz_oZdZxd0lIUzK-93" value="&lt;div&gt;&lt;b&gt;Given&lt;/b&gt;&lt;/div&gt;&lt;div&gt;1. Compound representation&lt;/div&gt;&lt;div&gt;2. Gene expression&amp;nbsp; of compound induced perturbation&lt;/div&gt;&lt;div&gt;3. image-based profile of compound induced perturbation&lt;br&gt;&lt;/div&gt;" style="text;html=1;align=center;verticalAlign=middle;resizable=0;points=[];autosize=1;strokeColor=none;fillColor=none;fontSize=12;" vertex="1" parent="1">
          <mxGeometry x="2028" y="904" width="330" height="70" as="geometry" />
        </mxCell>
      </root>
    </mxGraphModel>
  </diagram>
</mxfile>
